<?xml version="1.0" encoding="UTF-8" standalone="no"?>
<svg
   xmlns:serif="http://www.serif.com/"
   xmlns:dc="http://purl.org/dc/elements/1.1/"
   xmlns:cc="http://creativecommons.org/ns#"
   xmlns:rdf="http://www.w3.org/1999/02/22-rdf-syntax-ns#"
   xmlns:svg="http://www.w3.org/2000/svg"
   xmlns="http://www.w3.org/2000/svg"
   xmlns:sodipodi="http://sodipodi.sourceforge.net/DTD/sodipodi-0.dtd"
   xmlns:inkscape="http://www.inkscape.org/namespaces/inkscape"
   inkscape:version="1.0 (4035a4f, 2020-05-01)"
   sodipodi:docname="lpld-logo.svg"
   id="svg42"
   style="clip-rule:evenodd;fill-rule:evenodd;stroke-linecap:round;stroke-linejoin:round;stroke-miterlimit:1.5"
   xml:space="preserve"
   version="1.1"
   viewBox="0 0 770.02045 772.77509"
   height="772.77509"
   width="770.02045"><metadata
   id="metadata48"><rdf:RDF><cc:Work
       rdf:about=""><dc:format>image/svg+xml</dc:format><dc:type
         rdf:resource="http://purl.org/dc/dcmitype/StillImage" /><dc:title></dc:title></cc:Work></rdf:RDF></metadata><defs
   id="defs46" /><sodipodi:namedview
   inkscape:current-layer="Rounded-Sides"
   inkscape:window-maximized="0"
   inkscape:window-y="361"
   inkscape:window-x="1691"
   inkscape:cy="560.07334"
   inkscape:cx="72.821146"
   inkscape:zoom="0.65020905"
   inkscape:snap-page="true"
   inkscape:pagecheckerboard="true"
   showgrid="false"
   id="namedview44"
   inkscape:window-height="1253"
   inkscape:window-width="1726"
   inkscape:pageshadow="2"
   inkscape:pageopacity="0"
   guidetolerance="10"
   gridtolerance="10"
   objecttolerance="10"
   borderopacity="1"
   bordercolor="#666666"
   pagecolor="#ffffff" />
    <g
   inkscape:groupmode="layer"
   id="g40"
   transform="translate(-1713.8455,-1522.3061)">
        <g
   transform="translate(1598.93,1381.15)"
   serif:id="Rounded Sides"
   id="Rounded-Sides">
            <rect
   id="rect30"
   style="fill:none"
   height="1000"
   width="1000"
   y="0"
   x="0" />
            <g
   serif:id="Basic Layout Shapes"
   id="Basic-Layout-Shapes">
                <path
   style="fill:#333333;stroke:#ffffff;stroke-width:20px;stroke-linecap:square;stroke-linejoin:miter"
   d="M 673.948,551.892 812.814,413.026 c 0,0 22.457,22.456 44.548,44.548 11.252,11.252 17.574,26.513 17.574,42.426 0,15.913 -6.322,31.174 -17.574,42.426 -65.41,65.41 -183.414,183.414 -183.414,183.414 L 448.108,500 535.082,413.026 Z"
   serif:id="2nd L"
   id="_2nd-L" />
                <path
   style="fill:#333333;stroke:#ffffff;stroke-width:20px;stroke-linecap:square;stroke-linejoin:miter"
   d="M 187.035,412.875 360.983,238.927 535.082,413.026 448.108,500 586.974,638.866 500,725.84 Z"
   serif:id="P arc"
   id="P-arc" />
                <path
   style="fill:#333333;stroke:#ffffff;stroke-width:20px;stroke-linecap:square;stroke-linejoin:miter"
   d="M 500,725.84 586.974,638.866 673.948,725.84 500,899.789 c 0,0 -254.63,-254.63 -357.574,-357.574 -23.431,-23.431 -23.431,-61.421 0,-84.853 22.092,-22.091 44.548,-44.548 44.548,-44.548 z"
   serif:id="1st L"
   id="_1st-L" />
                <g
   transform="matrix(1.96388,-1.96388,1.38247,1.38247,-104.068,-781.589)"
   id="D">
                    <path
   id="path35"
   style="fill:#333333;stroke:#ffffff;stroke-width:8.33px"
   d="m -70.71,600.308 c 0,-16.685 -4.666,-32.687 -12.971,-44.485 -8.306,-11.799 -19.57,-18.427 -31.316,-18.427 h -26.423 v 226.272 h 70.71 z" />
                </g>
            </g>
        </g>
    </g>
</svg>
