<?xml version="1.0" encoding="UTF-8" standalone="no"?>
<!DOCTYPE svg PUBLIC "-//W3C//DTD SVG 1.1//EN" "http://www.w3.org/Graphics/SVG/1.1/DTD/svg11.dtd">
<svg width="100%" height="100%" viewBox="0 0 1000 1000" version="1.1" xmlns="http://www.w3.org/2000/svg" xmlns:xlink="http://www.w3.org/1999/xlink" xml:space="preserve" xmlns:serif="http://www.serif.com/" style="fill-rule:evenodd;clip-rule:evenodd;stroke-linecap:round;stroke-linejoin:round;stroke-miterlimit:1.5;">
    <g transform="matrix(1,0,0,1,-1598.93,-1381.15)">
        <g id="Rounded-Sides" serif:id="Rounded Sides" transform="matrix(1,0,0,1,1598.93,1381.15)">
            <rect x="0" y="0" width="1000" height="1000" style="fill:none;"/>
            <g id="Basic-Layout-Shapes" serif:id="Basic Layout Shapes">
                <path id="_2nd-L" serif:id="2nd L" d="M673.948,551.892L812.814,413.026C812.814,413.026 835.271,435.482 857.362,457.574C868.614,468.826 874.936,484.087 874.936,500C874.936,515.913 868.614,531.174 857.362,542.426C791.952,607.836 673.948,725.84 673.948,725.84L448.108,500L535.082,413.026L673.948,551.892Z" style="fill:rgb(51,51,51);stroke:white;stroke-width:20px;stroke-linecap:square;stroke-linejoin:miter;"/>
                <path id="P-arc" serif:id="P arc" d="M187.035,412.875L360.983,238.927L535.082,413.026L448.108,500L586.974,638.866L500,725.84L187.035,412.875Z" style="fill:rgb(51,51,51);stroke:white;stroke-width:20px;stroke-linecap:square;stroke-linejoin:miter;"/>
                <path id="_1st-L" serif:id="1st L" d="M500,725.84L586.974,638.866L673.948,725.84L500,899.789C500,899.789 245.37,645.159 142.426,542.215C118.995,518.784 118.995,480.794 142.426,457.362C164.518,435.271 186.974,412.814 186.974,412.814L500,725.84Z" style="fill:rgb(51,51,51);stroke:white;stroke-width:20px;stroke-linecap:square;stroke-linejoin:miter;"/>
                <g id="D" transform="matrix(1.96388,-1.96388,1.38247,1.38247,-104.068,-781.589)">
                    <path d="M-70.71,600.308C-70.71,583.623 -75.376,567.621 -83.681,555.823C-91.987,544.024 -103.251,537.396 -114.997,537.396L-141.42,537.396L-141.42,763.668L-70.71,763.668L-70.71,600.308Z" style="fill:rgb(51,51,51);stroke:white;stroke-width:8.33px;"/>
                </g>
            </g>
        </g>
    </g>
</svg>
